<?xml version="1.0" encoding="utf-8"?>
<!-- Generator: Adobe Illustrator 16.0.0, SVG Export Plug-In . SVG Version: 6.00 Build 0)  -->
<!DOCTYPE svg PUBLIC "-//W3C//DTD SVG 1.1//EN" "http://www.w3.org/Graphics/SVG/1.1/DTD/svg11.dtd">
<svg version="1.1" id="Layer_1" xmlns="http://www.w3.org/2000/svg" xmlns:xlink="http://www.w3.org/1999/xlink" x="0px" y="0px"
	 width="31.18px" height="31.18px" viewBox="0 0 31.18 31.18" enable-background="new 0 0 31.18 31.18" xml:space="preserve">
<path fill="#FFFFFF" d="M29.967,16.333c0,7.828-6.345,14.173-14.173,14.173S1.62,24.161,1.62,16.333S7.966,2.16,15.794,2.16
	S29.967,8.505,29.967,16.333z M18.955,22.162c-0.956,0.501-2.242,0.763-3.458,0.763c-3.554,0-6.104-2.264-6.104-6.246
	c0-4.553,3.194-7.414,6.841-7.414c3.696,0,5.698,2.408,5.698,5.508c0,2.74-1.288,4.054-2.312,4.028
	c-0.666-0.023-0.834-0.668-0.598-2.075l0.719-4.409c-0.597-0.334-1.789-0.596-2.838-0.596c-3.434,0-5.58,2.646-5.58,5.555
	c0,1.955,1.121,3.1,2.67,3.1c1.265,0,2.337-0.62,3.075-1.836h0.05c0.116,1.265,0.928,1.836,2.049,1.836
	c2.574,0,4.528-2.192,4.528-5.674c0-4.006-3.004-6.89-7.197-6.89c-5.391,0-8.917,4.22-8.917,9.082c0,4.673,3.479,7.509,7.437,7.509
	c1.694,0,2.935-0.214,4.363-0.856L18.955,22.162z M16.928,15.965c-0.214,1.382-1.146,2.502-2.026,2.502
	c-0.786,0-1.191-0.572-1.191-1.477c0-1.837,1.239-3.387,2.813-3.387c0.31,0,0.547,0.047,0.739,0.095L16.928,15.965z"/>
</svg>
