<?xml version="1.0" encoding="utf-8"?>
<!-- Generator: Adobe Illustrator 16.0.0, SVG Export Plug-In . SVG Version: 6.00 Build 0)  -->
<!DOCTYPE svg PUBLIC "-//W3C//DTD SVG 1.1//EN" "http://www.w3.org/Graphics/SVG/1.1/DTD/svg11.dtd">
<svg version="1.1" id="Layer_1" xmlns="http://www.w3.org/2000/svg" xmlns:xlink="http://www.w3.org/1999/xlink" x="0px" y="0px"
	 width="31.18px" height="31.18px" viewBox="0 0 31.18 31.18" enable-background="new 0 0 31.18 31.18" xml:space="preserve">
<g>
	<g>
		<g>
			<path fill="#FFFFFF" d="M16,2.123c-7.839,0-14.194,6.354-14.194,14.194c0,7.492,5.809,13.625,13.166,14.151V20.027h-4.167v-4.3
				h4.167v-3.17c0-3.678,2.524-5.682,6.211-5.682c1.764,0,3.281,0.117,3.724,0.17v3.844l-2.557,0.002
				c-2.004,0-2.393,0.847-2.393,2.091v2.745h4.779l-0.621,4.3h-4.158v9.92c5.913-1.715,10.235-7.164,10.235-13.63
				C30.194,8.477,23.84,2.123,16,2.123z"/>
		</g>
	</g>
</g>
</svg>
