<?xml version="1.0" encoding="utf-8"?>
<!-- Generator: Adobe Illustrator 16.0.0, SVG Export Plug-In . SVG Version: 6.00 Build 0)  -->
<!DOCTYPE svg PUBLIC "-//W3C//DTD SVG 1.1//EN" "http://www.w3.org/Graphics/SVG/1.1/DTD/svg11.dtd">
<svg version="1.1" id="Layer_1" xmlns="http://www.w3.org/2000/svg" xmlns:xlink="http://www.w3.org/1999/xlink" x="0px" y="0px"
	 width="144.57px" height="59.53px" viewBox="0 0 144.57 59.53" enable-background="new 0 0 144.57 59.53" xml:space="preserve">
<g>
	<g>
		<rect x="1.771" y="0.843" fill="#E30613" width="45.171" height="45.174"/>
		<path fill="#FFFFFF" d="M37.903,29.938l-0.235,9.301H10.812v-1.074h0.931c1.353,0,2.289-0.168,2.811-0.51
			c0.521-0.342,0.856-0.874,1.002-1.593c0.149-0.726,0.222-2.411,0.222-5.053V15.504c0-2.518-0.073-4.141-0.222-4.873
			c-0.146-0.73-0.459-1.236-0.932-1.515c-0.475-0.279-1.513-0.419-3.114-0.419h-0.698V7.624H25.99v1.073H24.59
			c-1.553,0-2.571,0.129-3.055,0.384c-0.481,0.257-0.803,0.734-0.967,1.435c-0.162,0.699-0.244,2.362-0.244,4.989v16.553
			c0,2.285,0.062,3.711,0.187,4.288c0.124,0.576,0.461,1.029,1.014,1.344c0.552,0.319,1.737,0.475,3.555,0.475h2.402
			c1.943,0,3.385-0.168,4.325-0.51s1.834-1.091,2.682-2.24c0.848-1.149,1.617-2.975,2.318-5.477H37.903z"/>
	</g>
	<g>
		<rect x="50.003" y="0.84" fill="#E30613" width="45.172" height="45.171"/>
		<path fill="#FFFFFF" d="M83.911,39.598L61.55,9.963v21.939c0,1.817,0.089,3.015,0.271,3.589c0.178,0.579,0.688,1.107,1.526,1.586
			c0.838,0.484,2.098,0.724,3.775,0.724v1.073H55.326v-1.073c1.508-0.106,2.657-0.382,3.452-0.82
			c0.794-0.444,1.264-0.928,1.411-1.442c0.146-0.513,0.222-1.726,0.222-3.636V15.138c0-2.424-0.115-4.048-0.337-4.873
			C59.847,9.442,59.487,8.915,59,8.682c-0.492-0.235-1.583-0.351-3.278-0.351V7.257h9.33L83.77,31.996v-18.91
			c0-1.397-0.143-2.377-0.431-2.937c-0.288-0.561-0.874-1.002-1.762-1.329c-0.883-0.329-1.947-0.49-3.193-0.49V7.257h11.472v1.074
			c-1.335,0.108-2.391,0.366-3.158,0.77c-0.772,0.404-1.26,0.89-1.469,1.458c-0.213,0.565-0.314,1.526-0.314,2.879v26.161H83.911z"
			/>
	</g>
	<rect x="98.231" y="0.659" fill="#E30613" width="45.178" height="45.176"/>
	<path fill="#FFFFFF" d="M117.769,24.333v6.646c0,2.484,0.053,4.117,0.168,4.884c0.124,0.768,0.435,1.335,0.949,1.708
		c0.515,0.372,1.474,0.559,2.893,0.559h1.047v1.073h-14.479v-1.073h0.843c1.349,0,2.289-0.169,2.804-0.51
		c0.523-0.342,0.852-0.87,0.994-1.593c0.142-0.721,0.213-2.409,0.213-5.048V15.473c0-2.52-0.071-4.143-0.213-4.873
		c-0.143-0.732-0.453-1.235-0.932-1.517c-0.479-0.28-1.526-0.419-3.123-0.419h-0.586V7.592l3.966-0.14
		c3.168-0.109,5.643-0.164,7.408-0.164c3.266,0,5.785,0.257,7.551,0.77c1.757,0.512,3.203,1.422,4.33,2.729
		c1.126,1.304,1.694,2.952,1.694,4.942c0,1.726-0.391,3.25-1.153,4.569c-0.772,1.322-1.872,2.324-3.31,3.007
		c-1.438,0.686-3.975,1.027-7.595,1.027H117.769z M117.769,23.166h2.262c1.819,0,3.283-0.182,4.401-0.548
		c1.117-0.364,2.059-1.129,2.804-2.295c0.745-1.167,1.117-2.604,1.117-4.314c0-2.611-0.647-4.527-1.925-5.747
		c-1.287-1.22-3.362-1.83-6.237-1.83c-1.056,0-1.863,0.031-2.422,0.093V23.166z"/>
	<g>
		<path d="M1.724,48.35c0.488-0.093,1.129-0.164,1.945-0.164c1.002,0,1.737,0.235,2.2,0.652c0.431,0.368,0.699,0.945,0.699,1.642
			c0,0.71-0.21,1.273-0.617,1.677c-0.537,0.567-1.408,0.869-2.4,0.869c-0.304,0-0.581-0.018-0.814-0.075v3.141H1.724V48.35z
			 M2.737,52.121c0.222,0.062,0.51,0.079,0.836,0.079c1.238,0,1.972-0.603,1.972-1.659c0-1.056-0.734-1.552-1.854-1.552
			c-0.444,0-0.779,0.048-0.954,0.084V52.121z"/>
		<path d="M12.431,54.557c0,0.581,0.013,1.091,0.049,1.534h-0.91l-0.06-0.918h-0.022c-0.257,0.457-0.863,1.056-1.865,1.056
			c-0.883,0-1.943-0.51-1.943-2.471v-3.301h1.025v3.11c0,1.068,0.339,1.805,1.258,1.805c0.685,0,1.165-0.479,1.353-0.944
			c0.055-0.138,0.093-0.324,0.093-0.523v-3.447h1.023V54.557z"/>
		<path d="M14.134,47.826h1.025v3.527h0.024c0.362-0.63,1.012-1.025,1.923-1.025c1.395,0,2.375,1.163,2.375,2.866
			c0,2.022-1.282,3.034-2.542,3.034c-0.812,0-1.453-0.319-1.885-1.069h-0.022l-0.058,0.932h-0.887
			c0.038-0.381,0.046-0.953,0.046-1.455V47.826z M15.159,53.838c0,0.124,0.013,0.253,0.036,0.368c0.2,0.71,0.805,1.197,1.539,1.197
			c1.081,0,1.71-0.869,1.71-2.16c0-1.14-0.581-2.111-1.675-2.111c-0.701,0-1.353,0.492-1.55,1.26
			c-0.036,0.128-0.06,0.271-0.06,0.435V53.838z"/>
		<path d="M20.766,47.826h1.025v8.265h-1.025V47.826z"/>
		<path d="M23.982,49.419c-0.386,0-0.641-0.302-0.641-0.665c0-0.359,0.269-0.647,0.663-0.647c0.395,0,0.65,0.288,0.65,0.647
			c0,0.363-0.255,0.665-0.661,0.665H23.982z M23.492,56.091v-5.634h1.022v5.634H23.492z"/>
		<path d="M30.235,55.892c-0.269,0.138-0.861,0.337-1.619,0.337c-1.702,0-2.804-1.157-2.804-2.896c0-1.734,1.184-3.004,3.025-3.004
			c0.605,0,1.14,0.151,1.419,0.302l-0.23,0.781c-0.244-0.124-0.63-0.267-1.189-0.267c-1.293,0-1.99,0.968-1.99,2.143
			c0,1.305,0.836,2.107,1.954,2.107c0.581,0,0.965-0.138,1.26-0.271L30.235,55.892z"/>
		<path d="M33.941,48.358c0.513-0.102,1.256-0.173,1.948-0.173c1.08,0,1.79,0.209,2.278,0.652c0.386,0.337,0.619,0.874,0.619,1.49
			c0,1.025-0.664,1.713-1.479,1.992v0.035c0.594,0.209,0.956,0.768,1.153,1.58c0.257,1.1,0.443,1.858,0.594,2.155h-1.049
			c-0.126-0.217-0.304-0.896-0.51-1.876c-0.235-1.083-0.666-1.491-1.584-1.526h-0.958v3.402h-1.012V48.358z M34.953,51.921h1.04
			c1.081,0,1.768-0.59,1.768-1.49c0-1.012-0.732-1.451-1.806-1.451c-0.488,0-0.825,0.049-1.002,0.094V51.921z"/>
		<path d="M40.795,53.447c0.022,1.389,0.894,1.956,1.919,1.956c0.734,0,1.191-0.124,1.562-0.279l0.184,0.724
			c-0.362,0.164-0.989,0.358-1.885,0.358c-1.724,0-2.771-1.148-2.771-2.839c0-1.708,1.014-3.048,2.655-3.048
			c1.839,0,2.318,1.615,2.318,2.648c0,0.213-0.013,0.382-0.038,0.493L40.795,53.447z M43.788,52.715
			c0.009-0.639-0.271-1.663-1.413-1.663c-1.047,0-1.488,0.954-1.568,1.663H43.788z"/>
		<path d="M46.05,47.826h1.022v8.265H46.05V47.826z"/>
		<path d="M52.747,54.747c0,0.488,0.022,0.963,0.08,1.344h-0.92l-0.093-0.705H51.78c-0.302,0.443-0.918,0.843-1.724,0.843
			c-1.142,0-1.724-0.812-1.724-1.623c0-1.362,1.209-2.104,3.39-2.095v-0.119c0-0.471-0.129-1.317-1.282-1.305
			c-0.537,0-1.083,0.146-1.479,0.422l-0.235-0.688c0.468-0.293,1.156-0.493,1.863-0.493c1.737,0,2.158,1.181,2.158,2.308V54.747z
			 M51.744,53.212c-1.118-0.018-2.387,0.182-2.387,1.277c0,0.67,0.441,0.972,0.952,0.972c0.748,0,1.224-0.461,1.386-0.936
			c0.038-0.111,0.049-0.222,0.049-0.333V53.212z"/>
		<path d="M55.579,49.108v1.349h1.466v0.776h-1.466v3.048c0,0.696,0.195,1.091,0.77,1.091c0.275,0,0.443-0.021,0.592-0.066
			l0.044,0.776c-0.193,0.071-0.51,0.146-0.907,0.146c-0.477,0-0.86-0.168-1.104-0.435c-0.279-0.315-0.397-0.816-0.397-1.481v-3.079
			h-0.872v-0.776h0.872v-1.038L55.579,49.108z"/>
		<path d="M58.693,49.419c-0.386,0-0.641-0.302-0.641-0.665c0-0.359,0.266-0.647,0.664-0.647c0.393,0,0.65,0.288,0.65,0.647
			c0,0.363-0.257,0.665-0.664,0.665H58.693z M58.201,56.091v-5.634h1.024v5.634H58.201z"/>
		<path d="M63.218,56.229c-1.51,0-2.697-1.122-2.697-2.905c0-1.89,1.247-2.995,2.793-2.995c1.619,0,2.715,1.181,2.715,2.884
			c0,2.103-1.458,3.017-2.797,3.017H63.218z M63.256,55.448c0.976,0,1.712-0.914,1.712-2.196c0-0.949-0.477-2.151-1.69-2.151
			c-1.198,0-1.724,1.109-1.724,2.187c0,1.238,0.701,2.161,1.69,2.161H63.256z"/>
		<path d="M67.324,51.983c0-0.595-0.009-1.061-0.047-1.526h0.91l0.058,0.923h0.022c0.282-0.523,0.934-1.052,1.863-1.052
			c0.783,0,1.992,0.466,1.992,2.396v3.367h-1.025v-3.247c0-0.909-0.337-1.677-1.302-1.677c-0.667,0-1.189,0.475-1.375,1.043
			c-0.047,0.137-0.071,0.319-0.071,0.479v3.402h-1.024V51.983z"/>
		<path d="M73.652,55.058c0.314,0.187,0.854,0.391,1.364,0.391c0.731,0,1.078-0.355,1.078-0.834c0-0.488-0.293-0.759-1.029-1.034
			c-1.029-0.377-1.509-0.918-1.509-1.597c0-0.909,0.748-1.655,1.952-1.655c0.568,0,1.064,0.151,1.366,0.351l-0.244,0.732
			c-0.217-0.124-0.625-0.324-1.148-0.324c-0.604,0-0.932,0.347-0.932,0.772c0,0.47,0.328,0.688,1.056,0.967
			c0.967,0.354,1.481,0.848,1.481,1.699c0,0.998-0.78,1.703-2.094,1.703c-0.619,0-1.193-0.168-1.586-0.399L73.652,55.058z"/>
		<path d="M80.912,48.35c0.488-0.093,1.127-0.164,1.943-0.164c1.002,0,1.729,0.235,2.2,0.652c0.426,0.368,0.701,0.945,0.701,1.642
			c0,0.71-0.213,1.273-0.621,1.677c-0.532,0.567-1.411,0.869-2.404,0.869c-0.293,0-0.577-0.018-0.808-0.075v3.141h-1.012V48.35z
			 M81.924,52.121c0.222,0.062,0.515,0.079,0.843,0.079c1.225,0,1.961-0.603,1.961-1.659c0-1.056-0.736-1.552-1.846-1.552
			c-0.443,0-0.78,0.048-0.958,0.084V52.121z"/>
		<path d="M87.017,47.826h1.029v3.519h0.018c0.159-0.293,0.417-0.56,0.736-0.724c0.302-0.19,0.665-0.293,1.047-0.293
			c0.754,0,1.97,0.466,1.97,2.414v3.349h-1.021v-3.238c0-0.918-0.346-1.672-1.313-1.672c-0.656,0-1.171,0.461-1.375,1.02
			c-0.053,0.146-0.062,0.302-0.062,0.488v3.402h-1.029V47.826z"/>
		<path d="M95.791,56.229c-1.517,0-2.706-1.122-2.706-2.905c0-1.89,1.242-2.995,2.795-2.995c1.615,0,2.715,1.181,2.715,2.884
			c0,2.103-1.464,3.017-2.795,3.017H95.791z M95.827,55.448c0.976,0,1.703-0.914,1.703-2.196c0-0.949-0.479-2.151-1.686-2.151
			c-1.198,0-1.722,1.109-1.722,2.187c0,1.238,0.701,2.161,1.686,2.161H95.827z"/>
		<path d="M101.123,49.108v1.349h1.465v0.776h-1.465v3.048c0,0.696,0.195,1.091,0.764,1.091c0.284,0,0.443-0.021,0.604-0.066
			l0.044,0.776c-0.204,0.071-0.515,0.146-0.914,0.146c-0.479,0-0.86-0.168-1.1-0.435c-0.284-0.315-0.399-0.816-0.399-1.481v-3.079
			h-0.87v-0.776h0.87v-1.038L101.123,49.108z"/>
		<path d="M105.977,56.229c-1.517,0-2.706-1.122-2.706-2.905c0-1.89,1.251-2.995,2.795-2.995c1.624,0,2.715,1.181,2.715,2.884
			c0,2.103-1.464,3.017-2.795,3.017H105.977z M106.012,55.448c0.977,0,1.704-0.914,1.704-2.196c0-0.949-0.479-2.151-1.686-2.151
			c-1.207,0-1.73,1.109-1.73,2.187c0,1.238,0.71,2.161,1.694,2.161H106.012z"/>
		<path d="M114.902,55.271c0,1.3-0.267,2.085-0.799,2.582c-0.559,0.501-1.357,0.679-2.067,0.679c-0.674,0-1.41-0.164-1.872-0.471
			l0.258-0.785c0.373,0.244,0.958,0.453,1.65,0.453c1.047,0,1.818-0.555,1.818-1.979v-0.626h-0.018
			c-0.311,0.523-0.923,0.949-1.801,0.949c-1.394,0-2.396-1.193-2.396-2.759c0-1.917,1.242-2.986,2.546-2.986
			c0.977,0,1.5,0.502,1.766,0.972h0.018l0.036-0.843h0.914c-0.036,0.399-0.054,0.852-0.054,1.539V55.271z M113.882,52.671
			c0-0.16-0.009-0.315-0.062-0.461c-0.187-0.6-0.675-1.092-1.429-1.092c-0.977,0-1.677,0.829-1.677,2.151
			c0,1.092,0.567,2.023,1.668,2.023c0.639,0,1.206-0.399,1.41-1.065c0.071-0.159,0.089-0.359,0.089-0.545V52.671z"/>
		<path d="M116.597,52.21c0-0.657-0.009-1.229-0.044-1.753h0.896l0.053,1.104h0.026c0.267-0.754,0.888-1.233,1.579-1.233
			c0.107,0,0.187,0.014,0.284,0.036v0.953c-0.124-0.009-0.222-0.018-0.372-0.018c-0.719,0-1.225,0.541-1.367,1.3
			c-0.018,0.155-0.035,0.315-0.035,0.488v3.003h-1.029L116.597,52.21z"/>
		<path d="M124.307,54.747c0,0.488,0.027,0.963,0.08,1.344h-0.923l-0.088-0.705h-0.036c-0.302,0.443-0.923,0.843-1.721,0.843
			c-1.145,0-1.722-0.812-1.722-1.623c0-1.362,1.207-2.104,3.381-2.095v-0.119c0-0.471-0.125-1.317-1.278-1.305
			c-0.532,0-1.082,0.146-1.481,0.422l-0.23-0.688c0.47-0.293,1.153-0.493,1.872-0.493c1.729,0,2.146,1.181,2.146,2.308V54.747z
			 M123.305,53.212c-1.118-0.018-2.387,0.182-2.387,1.277c0,0.67,0.443,0.972,0.958,0.972c0.745,0,1.225-0.461,1.384-0.936
			c0.036-0.111,0.045-0.222,0.045-0.333V53.212z"/>
		<path d="M125.948,52.303c0-0.724-0.009-1.313-0.044-1.846h0.923l0.062,0.967h0.018c0.408-0.7,1.092-1.096,1.997-1.096
			c1.375,0,2.404,1.149,2.404,2.866c0,2.022-1.251,3.034-2.564,3.034c-0.754,0-1.401-0.337-1.729-0.892h-0.027v3.062h-1.038V52.303z
			 M126.986,53.802c0,0.134,0.009,0.289,0.045,0.413c0.168,0.714,0.798,1.202,1.525,1.202c1.074,0,1.713-0.883,1.713-2.174
			c0-1.131-0.586-2.099-1.668-2.099c-0.701,0-1.366,0.488-1.562,1.256c-0.018,0.146-0.054,0.288-0.054,0.426V53.802z"/>
		<path d="M132.576,47.826h1.029v3.519h0.026c0.16-0.293,0.408-0.56,0.728-0.724c0.311-0.19,0.666-0.293,1.047-0.293
			c0.764,0,1.97,0.466,1.97,2.414v3.349h-1.021v-3.238c0-0.918-0.346-1.672-1.312-1.672c-0.657,0-1.172,0.461-1.366,1.02
			c-0.054,0.146-0.071,0.302-0.071,0.488v3.402h-1.029V47.826z"/>
		<path d="M139.274,50.457l1.225,3.332c0.134,0.372,0.275,0.816,0.364,1.148h0.026c0.106-0.332,0.222-0.768,0.364-1.171l1.117-3.31
			h1.083l-1.535,4.015c-0.736,1.935-1.233,2.928-1.935,3.545c-0.506,0.426-1.002,0.604-1.26,0.647l-0.248-0.856
			c0.248-0.07,0.585-0.234,0.887-0.505c0.284-0.218,0.621-0.617,0.87-1.141c0.044-0.102,0.079-0.169,0.079-0.244
			c0-0.058-0.026-0.138-0.079-0.257l-2.076-5.204H139.274z"/>
	</g>
</g>
</svg>
