<?xml version="1.0" encoding="utf-8"?>
<!-- Generator: Adobe Illustrator 16.0.0, SVG Export Plug-In . SVG Version: 6.00 Build 0)  -->
<!DOCTYPE svg PUBLIC "-//W3C//DTD SVG 1.1//EN" "http://www.w3.org/Graphics/SVG/1.1/DTD/svg11.dtd">
<svg version="1.1" id="Layer_1" xmlns="http://www.w3.org/2000/svg" xmlns:xlink="http://www.w3.org/1999/xlink" x="0px" y="0px"
	 width="31.18px" height="31.18px" viewBox="0 0 31.18 31.18" enable-background="new 0 0 31.18 31.18" xml:space="preserve">
<path fill="#FFFFFF" d="M30.16,16.092c0,7.828-6.346,14.173-14.173,14.173c-7.828,0-14.173-6.346-14.173-14.173
	S8.16,1.919,15.987,1.919C23.814,1.919,30.16,8.265,30.16,16.092z M8.864,6.629C8.057,7.1,7.403,7.757,6.744,8.4
	C6.277,8.855,6.228,9.415,6.535,9.982c0.129,0.238,0.283,0.477,0.476,0.663c0.52,0.504,1.049,1,1.607,1.46
	c0.383,0.315,0.801,0.599,1.238,0.833c0.809,0.433,1.61,0.397,2.328-0.213c0.438-0.371,0.851-0.771,1.268-1.167
	c0.423-0.403,0.911-0.561,1.485-0.43c0.65,0.15,1.185,0.517,1.691,0.928c0.937,0.758,1.727,1.657,2.469,2.597
	c0.552,0.699,1.062,1.429,1.361,2.278c0.334,0.942,0.215,1.699-0.659,2.3c-0.431,0.297-0.824,0.654-1.21,1.013
	c-0.519,0.481-0.702,1.089-0.576,1.79c0.109,0.616,0.387,1.164,0.716,1.686c0.486,0.774,0.929,1.58,1.602,2.224
	c0.64,0.613,1.331,0.661,2.021,0.111c0.305-0.241,0.591-0.508,0.893-0.755c1.66-1.358,2.412-3.137,2.389-5.254
	c-0.017-1.513-0.475-2.917-1.136-4.261c-0.775-1.575-1.796-2.984-2.933-4.314c-1.411-1.65-2.948-3.16-4.817-4.296
	c-1.413-0.858-2.92-1.422-4.984-1.428C10.972,5.742,9.879,6.037,8.864,6.629z"/>
</svg>
