<?xml version="1.0" encoding="utf-8"?>
<!-- Generator: Adobe Illustrator 16.0.0, SVG Export Plug-In . SVG Version: 6.00 Build 0)  -->
<!DOCTYPE svg PUBLIC "-//W3C//DTD SVG 1.1//EN" "http://www.w3.org/Graphics/SVG/1.1/DTD/svg11.dtd">
<svg version="1.1" id="Layer_1" xmlns="http://www.w3.org/2000/svg" xmlns:xlink="http://www.w3.org/1999/xlink" x="0px" y="0px"
	 width="90.71px" height="11.34px" viewBox="0 0 90.71 11.34" enable-background="new 0 0 90.71 11.34" xml:space="preserve">
<g>
	<path d="M7.708,5.578c0,3.571-1.325,5.542-3.652,5.542c-2.052,0-3.442-1.923-3.475-5.397c0-3.523,1.519-5.462,3.652-5.462
		C6.447,0.261,7.708,2.232,7.708,5.578z M2.004,5.739c0,2.73,0.84,4.282,2.133,4.282c1.454,0,2.149-1.697,2.149-4.379
		c0-2.585-0.662-4.282-2.133-4.282C2.909,1.36,2.004,2.879,2.004,5.739z"/>
	<path d="M15.835,0.439v0.937l-4.573,9.566h-1.47l4.557-9.292V1.619H9.209v-1.18H15.835z"/>
	<path d="M24.124,0.439v0.937l-4.573,9.566h-1.47l4.557-9.292V1.619h-5.139v-1.18H24.124z"/>
	<path d="M26.417,9.94c0.307,0.032,0.663,0,1.147-0.049c0.824-0.112,1.6-0.452,2.197-1.018c0.695-0.63,1.196-1.552,1.39-2.795
		h-0.048c-0.582,0.711-1.422,1.13-2.472,1.13c-1.891,0-3.103-1.421-3.103-3.215c0-1.988,1.438-3.733,3.587-3.733
		c2.149,0,3.474,1.745,3.474,4.428c0,2.311-0.776,3.926-1.81,4.928c-0.808,0.792-1.923,1.276-3.054,1.406
		c-0.517,0.08-0.97,0.097-1.309,0.08V9.94z M26.935,3.897c0,1.309,0.792,2.23,2.02,2.23c0.953,0,1.697-0.469,2.068-1.099
		c0.081-0.129,0.129-0.291,0.129-0.517c0-1.794-0.662-3.167-2.149-3.167C27.791,1.344,26.935,2.41,26.935,3.897z"/>
	<path d="M33.882,10.942v-0.873l1.115-1.082c2.682-2.553,3.894-3.911,3.91-5.494c0-1.066-0.517-2.052-2.084-2.052
		c-0.953,0-1.745,0.485-2.23,0.889l-0.452-1.002c0.727-0.614,1.761-1.066,2.973-1.066c2.262,0,3.216,1.551,3.216,3.054
		c0,1.939-1.406,3.506-3.62,5.64L35.87,9.73v0.032h4.718v1.18H33.882z"/>
	<path d="M46.566,10.942v-2.86h-4.881V7.145l4.687-6.706h1.535v6.528h1.471v1.115h-1.471v2.86H46.566z M46.566,6.967V3.461
		c0-0.55,0.016-1.099,0.048-1.648h-0.048c-0.324,0.614-0.583,1.066-0.873,1.551l-2.569,3.571v0.032H46.566z"/>
	<path d="M57.44,5.578c0,3.571-1.325,5.542-3.652,5.542c-2.052,0-3.441-1.923-3.474-5.397c0-3.523,1.519-5.462,3.651-5.462
		C56.18,0.261,57.44,2.232,57.44,5.578z M51.736,5.739c0,2.73,0.84,4.282,2.133,4.282c1.454,0,2.149-1.697,2.149-4.379
		c0-2.585-0.663-4.282-2.133-4.282C52.641,1.36,51.736,2.879,51.736,5.739z"/>
	<path d="M58.748,10.942v-0.873l1.114-1.082c2.683-2.553,3.895-3.911,3.911-5.494c0-1.066-0.518-2.052-2.085-2.052
		c-0.953,0-1.745,0.485-2.229,0.889l-0.453-1.002c0.728-0.614,1.762-1.066,2.974-1.066c2.263,0,3.216,1.551,3.216,3.054
		c0,1.939-1.406,3.506-3.62,5.64l-0.84,0.775v0.032h4.719v1.18H58.748z"/>
	<path d="M73.855,0.439v0.937l-4.572,9.566h-1.471l4.557-9.292V1.619H67.23v-1.18H73.855z"/>
	<path d="M81.321,1.441c-0.291-0.016-0.663,0-1.067,0.064c-2.229,0.372-3.409,2.004-3.651,3.733h0.048
		c0.501-0.663,1.374-1.212,2.537-1.212c1.858,0,3.167,1.341,3.167,3.394c0,1.923-1.309,3.7-3.49,3.7
		c-2.246,0-3.716-1.745-3.716-4.476c0-2.068,0.743-3.7,1.777-4.734c0.872-0.856,2.036-1.39,3.36-1.551
		c0.421-0.065,0.776-0.081,1.035-0.081V1.441z M80.917,7.501c0-1.503-0.856-2.408-2.165-2.408c-0.856,0-1.648,0.533-2.036,1.293
		c-0.098,0.161-0.162,0.372-0.162,0.63c0.032,1.729,0.824,3.006,2.311,3.006C80.093,10.021,80.917,9.003,80.917,7.501z"/>
	<path d="M89.884,1.635h-4.008l-0.404,2.699c0.243-0.033,0.469-0.065,0.856-0.065c0.809,0,1.616,0.178,2.263,0.566
		c0.824,0.468,1.503,1.374,1.503,2.699c0,2.052-1.632,3.587-3.91,3.587c-1.147,0-2.117-0.323-2.618-0.646l0.355-1.083
		c0.437,0.259,1.293,0.582,2.246,0.582c1.341,0,2.488-0.872,2.488-2.278c-0.016-1.357-0.921-2.327-3.021-2.327
		c-0.598,0-1.066,0.064-1.454,0.113l0.679-5.042h5.025V1.635z"/>
</g>
</svg>
