<?xml version="1.0" encoding="utf-8"?>
<!-- Generator: Adobe Illustrator 16.0.0, SVG Export Plug-In . SVG Version: 6.00 Build 0)  -->
<!DOCTYPE svg PUBLIC "-//W3C//DTD SVG 1.1//EN" "http://www.w3.org/Graphics/SVG/1.1/DTD/svg11.dtd">
<svg version="1.1" id="Layer_1" xmlns="http://www.w3.org/2000/svg" xmlns:xlink="http://www.w3.org/1999/xlink" x="0px" y="0px"
	 width="31.18px" height="31.18px" viewBox="0 0 31.18 31.18" enable-background="new 0 0 31.18 31.18" xml:space="preserve">
<path fill="#FFFFFF" d="M30.176,16.333c0,7.829-6.347,14.173-14.176,14.173c-7.827,0-14.174-6.345-14.174-14.173S8.173,2.16,16,2.16
	C23.829,2.16,30.176,8.505,30.176,16.333z M25.646,11.57c-0.627,0.28-1.306,0.469-2.014,0.555c0.724-0.436,1.28-1.122,1.543-1.942
	c-0.682,0.401-1.432,0.694-2.23,0.852c-0.64-0.683-1.553-1.109-2.563-1.109c-1.938,0-3.509,1.572-3.509,3.511
	c0,0.276,0.031,0.543,0.091,0.801c-2.92-0.146-5.507-1.544-7.237-3.668c-0.303,0.519-0.477,1.121-0.477,1.765
	c0,1.219,0.623,2.294,1.562,2.923c-0.575-0.019-1.114-0.176-1.589-0.439c-0.001,0.016-0.001,0.03-0.001,0.044
	c0,1.7,1.21,3.12,2.819,3.442c-0.296,0.08-0.605,0.123-0.929,0.123c-0.225,0-0.445-0.022-0.659-0.062
	c0.445,1.396,1.743,2.41,3.277,2.438c-1.201,0.941-2.715,1.503-4.355,1.503c-0.283,0-0.566-0.016-0.84-0.05
	c1.553,0.997,3.398,1.578,5.382,1.578c6.457,0,9.99-5.351,9.99-9.989c0-0.153-0.005-0.305-0.011-0.455
	C24.581,12.893,25.177,12.275,25.646,11.57z"/>
</svg>
