<?xml version="1.0" encoding="utf-8"?>
<!-- Generator: Adobe Illustrator 16.0.0, SVG Export Plug-In . SVG Version: 6.00 Build 0)  -->
<!DOCTYPE svg PUBLIC "-//W3C//DTD SVG 1.1//EN" "http://www.w3.org/Graphics/SVG/1.1/DTD/svg11.dtd">
<svg version="1.1" id="Layer_1" xmlns="http://www.w3.org/2000/svg" xmlns:xlink="http://www.w3.org/1999/xlink" x="0px" y="0px"
	 width="600px" height="265.345px" viewBox="0 0 600 265.345" enable-background="new 0 0 600 265.345" xml:space="preserve">
<g>
	<g>
		<rect fill="#ED1F24" width="191.828" height="192.007"/>
		<path fill="#FDFDFE" d="M144.637,129.514c-1.197,6.186-5.38,25.134-7.175,31.314H47.191v-5.584
			c16.74-1.194,18.333-2.588,18.333-19.543V55.913c0-16.954-1.196-17.951-17.535-19.147v-5.584h52.007v5.584
			c-15.741,1.196-17.535,2.193-17.535,19.147V134.7c0,10.768,0.997,14.762,4.585,16.753c3.985,2.199,10.761,2.595,19.131,2.595
			c10.96,0,17.736-0.998,22.318-6.186c3.586-3.986,7.171-10.368,10.164-19.545L144.637,129.514z"/>
	</g>
	<g>
		<rect x="204.088" fill="#ED1F24" width="191.823" height="192.007"/>
		<path fill="#FFFFFF" d="M369.646,35.863c-11.158,0.598-15.937,3.191-16.739,11.771c-0.796,6.18-1.191,15.156-1.191,33.708v80.384
			h-6.179L260.645,57.207h-0.399v50.064c0,18.347,0.597,27.924,1.194,33.708c1,10.171,5.581,12.563,19.133,13.362v5.583h-47.229
			v-5.583c11.361-0.799,16.542-3.191,17.535-12.963c0.598-6.184,1.194-15.959,1.194-34.108V63.388
			c0-14.558-0.396-15.358-3.982-20.145c-4.186-4.988-8.37-6.581-17.736-7.38v-5.583h29.294l83.299,99.926h0.597V81.342
			c0-18.354-0.597-27.528-1.396-33.114c-0.997-8.976-5.578-11.565-19.529-12.365v-5.583h47.027V35.863z"/>
	</g>
	<g>
		<rect x="408.172" fill="#ED1F24" width="191.827" height="192.007"/>
		<path fill="#FFFFFF" d="M506.076,31.179c14.149,0,25.708,2.394,33.678,8.174c7.773,5.988,12.753,15.162,12.753,28.129
			c0,25.925-19.331,38.494-38.859,40.883c-2.986,0.401-6.771,0.401-8.967,0.198l-14.746-3.789v31.319
			c0,16.951,1.796,17.955,19.727,19.147v5.586h-53.994v-5.586c15.938-1.193,17.531-2.792,17.531-19.346V56.11
			c0-17.553-1.593-18.349-16.339-19.347v-5.584H506.076z M489.934,98.195c2.591,0.996,7.974,2.396,14.548,2.396
			c12.955,0,28.895-6.982,28.895-32.313c0-21.541-13.752-30.716-30.089-30.716c-5.58,0-9.765,0.997-11.158,2.394
			c-1.595,1.194-2.195,3.587-2.195,9.375V98.195z"/>
	</g>
	<text transform="matrix(0.9991 0 0 1 4.3711 249.4414)" font-family="'MyriadPro-Regular'" font-size="63.6143">London News Pictures</text>
</g>
</svg>
